<?xml version="1.0" encoding="UTF-8" standalone="no"?>
<svg
   xmlns:dc="http://purl.org/dc/elements/1.1/"
   xmlns:cc="http://creativecommons.org/ns#"
   xmlns:rdf="http://www.w3.org/1999/02/22-rdf-syntax-ns#"
   xmlns:svg="http://www.w3.org/2000/svg"
   xmlns="http://www.w3.org/2000/svg"
   xmlns:sodipodi="http://sodipodi.sourceforge.net/DTD/sodipodi-0.dtd"
   xmlns:inkscape="http://www.inkscape.org/namespaces/inkscape"
   version="1.1"
   width="24"
   height="24"
   viewBox="0 0 24 24"
   id="svg4"
   sodipodi:docname="iot_device.svg"
   inkscape:version="0.92.3 (2405546, 2018-03-11)">
  <metadata
     id="metadata10">
    <rdf:RDF>
      <cc:Work
         rdf:about="">
        <dc:format>image/svg+xml</dc:format>
        <dc:type
           rdf:resource="http://purl.org/dc/dcmitype/StillImage" />
        <dc:title></dc:title>
      </cc:Work>
    </rdf:RDF>
  </metadata>
  <defs
     id="defs8" />
  <sodipodi:namedview
     pagecolor="#ffffff"
     bordercolor="#666666"
     borderopacity="1"
     objecttolerance="10"
     gridtolerance="10"
     guidetolerance="10"
     inkscape:pageopacity="0"
     inkscape:pageshadow="2"
     inkscape:window-width="1920"
     inkscape:window-height="1001"
     id="namedview6"
     showgrid="false"
     inkscape:zoom="19.666667"
     inkscape:cx="11.722528"
     inkscape:cy="11.78805"
     inkscape:window-x="-9"
     inkscape:window-y="-9"
     inkscape:window-maximized="1"
     inkscape:current-layer="svg4" />
  <rect
     style="fill:none;fill-opacity:1;stroke:#000000;stroke-width:2;stroke-linecap:butt;stroke-linejoin:round;stroke-miterlimit:4;stroke-dasharray:none;stroke-opacity:1"
     id="rect829"
     width="11.990506"
     height="11.848121"
     x="2.069663"
     y="10.082216" />
  <path
     style="fill:#030303;stroke-width:0.04057324;stroke:none;stroke-opacity:1;fill-opacity:1"
     d="M 7.884473,16.493668 C 7.129344,17.253072 6.374215,18.012438 5.619086,18.771842 5.521156,18.671313 5.423227,18.570396 5.325296,18.469866 6.153143,17.63749 6.981013,16.805115 7.808881,15.972739 6.95505,15.102946 6.039365,14.189099 5.344178,13.457641 c 0.08155,-0.117219 0.172792,-0.182428 0.275147,-0.29072 0.749675,0.757309 1.499351,1.514656 2.249027,2.271964 0.01363,-1.326638 0.02722,-2.653316 0.04085,-3.979954 0.87665,0.804506 1.753278,1.609052 2.629907,2.413598 -0.70652,0.698931 -1.413018,1.397902 -2.119518,2.096872 l 2.119261,2.09761 c -0.846258,0.782111 -1.695875,1.561311 -2.551964,2.332515 l -0.0981,0.07375 c -0.0015,-1.384162 -0.0028,-2.560317 -0.0043,-3.979606 z M 9.88876,18.054319 C 9.34413,17.473694 8.904871,17.054304 8.296924,16.454077 c -0.0086,1.007739 -9.55e-4,2.047035 0.0383,3.03754 0.562836,-0.478892 1.01598,-0.918699 1.553536,-1.437298 z m 0,-4.169797 c 0,-0.03493 -1.495779,-1.417154 -1.55352,-1.437415 -0.06072,1.076325 -0.0383,1.845743 -0.0383,3.037541 0.539997,-0.523297 1.071248,-1.061498 1.591836,-1.600126 z"
     id="path854"
     inkscape:connector-curvature="0"
     sodipodi:nodetypes="ccccccccccccccccccccccc" />
  <path
     style="fill:none;fill-opacity:1;stroke:#000000;stroke-width:1.80338013;stroke-linecap:round;stroke-miterlimit:4;stroke-dasharray:none;stroke-opacity:1"
     id="path823"
     sodipodi:type="arc"
     sodipodi:cx="12.914533"
     sodipodi:cy="11.085467"
     sodipodi:rx="5.6836872"
     sodipodi:ry="5.6836872"
     sodipodi:start="4.712389"
     sodipodi:end="0"
     d="M 12.914533,5.4017801 A 5.6836872,5.6836872 0 0 1 18.59822,11.085467"
     sodipodi:open="true" />
  <path
     style="fill:none;fill-opacity:1;stroke:#000000;stroke-width:1.77753317;stroke-linecap:round;stroke-miterlimit:4;stroke-dasharray:none;stroke-opacity:1"
     id="path825"
     sodipodi:type="arc"
     sodipodi:cx="12.901424"
     sodipodi:cy="11.098576"
     sodipodi:rx="9.2097197"
     sodipodi:ry="9.2097197"
     sodipodi:start="4.712389"
     sodipodi:end="0"
     d="m 12.901425,1.8888559 a 9.2097197,9.2097197 0 0 1 9.209719,9.2097201"
     sodipodi:open="true" />
</svg>
